<?xml version="1.0" encoding="UTF-8"?>
<svg id="icono" xmlns="http://www.w3.org/2000/svg" xmlns:xlink="http://www.w3.org/1999/xlink" viewBox="0 0 500 500">
  <defs>
    <style>
      .cls-1 {
        fill: url(#Degradado_sin_nombre_39-2);
      }

      .cls-2 {
        fill: #002f49;
      }

      .cls-3 {
        fill: url(#Degradado_sin_nombre_39-3);
      }

      .cls-4 {
        fill: url(#Degradado_sin_nombre_39);
      }

      .cls-5 {
        fill: url(#Degradado_sin_nombre_39-4);
      }
    </style>
    <linearGradient id="Degradado_sin_nombre_39" data-name="Degradado sin nombre 39" x1="176.35" y1="123.95" x2="412.56" y2="360.16" gradientTransform="translate(-10.95 8.96) rotate(-1.87)" gradientUnits="userSpaceOnUse">
      <stop offset=".26" stop-color="#49acd3"/>
      <stop offset=".36" stop-color="#3f8ec4"/>
      <stop offset=".53" stop-color="#2d51a5"/>
      <stop offset=".96" stop-color="#39519b"/>
    </linearGradient>
    <linearGradient id="Degradado_sin_nombre_39-2" data-name="Degradado sin nombre 39" x1="374.29" y1="323.24" x2="331.23" y2="366.3" gradientTransform="translate(52.83 -55.59) rotate(8.37)" xlink:href="#Degradado_sin_nombre_39"/>
    <linearGradient id="Degradado_sin_nombre_39-3" data-name="Degradado sin nombre 39" x1="153.63" y1="156.02" x2="71.88" y2="237.77" gradientTransform="translate(261.57 2.27) rotate(72.22)" xlink:href="#Degradado_sin_nombre_39"/>
    <linearGradient id="Degradado_sin_nombre_39-4" data-name="Degradado sin nombre 39" x1="405.2" y1="160.56" x2="354.77" y2="210.99" gradientTransform="translate(53.79 -88.81) rotate(13.94)" xlink:href="#Degradado_sin_nombre_39"/>
  </defs>
  <path class="cls-2" d="M260.27,273.21s-.07-.04-.09-.05c-2.65-1.44-5.53.77-6.45,4.92-.91,4.15.49,8.69,3.14,10.12,20.37,11.05,41.98,22.03,62.67,31.59,9.51,4.36,19.05,8.56,28.65,12.48.07-4.73,1.29-9.01,3.24-12.18-9.81-4.29-19.57-8.92-29.29-13.69-20.41-10.09-41.75-21.62-61.86-33.2Z"/>
  <path id="solo_trazop" data-name="solo trazop" class="cls-2" d="M338.03,158.21c10.27-5.59,20.58-10.96,30.93-15.94,10.35-4.92,20.8-9.48,31.24-12.64,5.17-1.47,10.52-2.88,15.2-2.55.81.09,1.62.25,2.23.48-.1.27-.2.56-.33.87-.55,1.32-1.3,2.77-2.13,4.18-3.38,5.69-7.64,10.96-11.92,15.97-.86,1-1.73,2-2.61,2.98-2.05,2.29-2.36,6.9-.77,10.01.05.1.1.21.16.31,1.44,2.93,3.98,3.66,5.85,1.46.88-1.03,1.75-2.07,2.63-3.13,4.45-5.47,8.84-11.03,12.93-18.16,1.02-1.82,2.02-3.77,2.96-6.14.47-1.19.92-2.52,1.32-4.11.38-1.6.74-3.62.65-6.2-.05-1.3-.26-2.7-.63-4.01-.41-1.24-.92-2.51-1.48-3.29-.28-.41-.59-.9-.86-1.19-.27-.29-.55-.56-.83-.83-.6-.6-1.04-.77-1.57-1.13-1.98-1.06-3.61-1.23-5.21-1.38-3.13-.13-5.99.35-8.82.98-2.82.64-5.57,1.47-8.29,2.44-10.85,3.91-21.31,9.13-31.7,14.69-10.38,5.55-20.62,11.68-30.77,18.1-1.33.85-2.04,3.25-1.58,5.47.47,2.29,2,3.52,3.41,2.75ZM103.19,165.16c3.16,3.74,6.38,7.13,9.63,10.37.98-4.42,2.63-8.31,4.77-11.34-3.16-3.32-6.25-6.76-9.16-10.39-1.96-2.43-3.9-4.91-5.52-7.5-.81-1.28-1.56-2.61-2.08-3.8-.07-.13-.13-.26-.18-.39.49-.23,1.09-.43,1.72-.56,2.12-.48,4.59-.44,7.02-.28,4.93.35,9.98,1.56,15.03,2.72,5.05,1.22,10.11,2.72,15.17,4.34,5.07,1.52,10.12,3.3,15.19,4.98,1.33.43,2.69-.81,3.11-2.95.46-2.3-.32-4.77-1.74-5.51-4.97-2.59-10-4.88-15.05-7.14-5.07-2.13-10.17-4.14-15.33-5.88-5.17-1.77-10.4-3.11-15.84-3.86-2.74-.32-5.48-.57-8.53-.07-1.53.28-3.12.63-5.04,1.94-.93.64-2.05,1.66-3.1,3.54-.53.91-.97,2.14-1.31,3.44-.14.66-.25,1.35-.34,2.03-.08.67-.09,1.3-.11,1.96,0,2.5.41,4.51.84,6.01.43,1.56.92,2.79,1.41,3.93.99,2.24,2.01,4.01,3.05,5.68,2.08,3.32,4.22,6.1,6.4,8.75ZM271.83,280.3,272.23,280.01c2.3-1.67,4.6-3.34,6.9-5.03,19.83-14.72,39.5-30,58.86-46.38,14.27-12.14,28.44-24.6,42.29-38.16-2.27-3.72-3.7-8.77-3.82-14.37-14.08,13.32-28.54,25.82-43.12,37.88-19.29,15.88-38.8,31.11-58.54,45.57-4.73,3.47-9.46,6.91-14.2,10.32-1.76-1.9-3.64-3.29-5.57-4.48l-7.26-4.45-14.47-9.08c-9.62-6.19-19.26-12.29-28.82-18.7-9.57-6.38-19.09-12.93-28.55-19.72-7-5.07-20.04-15.23-26.69-20.46-2.02-1.58-4.42-.14-5.35,3.17-.01.04-.02.08-.03.12-.9,3.15-.08,6.89,1.83,8.45,6.5,5.31,19.61,15.96,26.65,21.39,9.41,7.3,18.88,14.37,28.41,21.23,9.53,6.83,19.09,13.6,28.75,19.93l14.5,9.46,3.65,2.33c-10.79,7.57-21.62,14.96-32.53,22.06-20.04,13.22-40.31,25.55-60.77,36.58-10.23,5.44-20.55,10.55-30.9,14.37-5.15,1.86-10.41,3.5-15.3,3.85-1.2.06-2.38.02-3.37-.18-.35-.06-.63-.16-.9-.26.29-.9.74-2.03,1.28-3.12,1.42-2.94,3.26-5.89,5.17-8.69,1.93-2.82,3.97-5.53,6.06-8.18,4.19-5.3,8.57-10.34,13.03-15.22,4.45-4.9,9-9.62,13.58-14.26,4.57-4.68,9.19-9.26,13.84-13.76,1.36-1.32,1.77-4.34.73-6.49-.82-1.69-2.33-2.03-3.5-1.03-9.59,8.26-19.08,16.9-28.34,26.3-4.65,4.72-9.26,9.6-13.76,14.89-2.25,2.65-4.48,5.39-6.66,8.35-2.17,2.99-4.32,6.1-6.34,9.99-1,1.98-1.99,4.14-2.8,7.27-.37,1.66-.76,3.52-.63,6.18.02,1.21.3,2.7.65,3.93.39,1.3.91,2.34,1.48,3.24,1.13,1.66,2.22,2.42,3.21,3.03.96.51,1.87.86,2.71,1.05,1.69.41,3.24.48,4.75.47,5.98-.23,11.45-1.83,16.92-3.57,10.89-3.62,21.45-8.45,31.93-13.6,35.08-17.73,69.14-39.58,102.67-63.33M271.83,280.3c.13-.1.27-.19.4-.29M420.65,339.77c.05-1.71-.11-3.09-.33-4.29-.43-2.42-1.07-4.23-1.73-5.94-2.71-6.67-5.99-11.62-9.3-16.57-6.7-9.68-13.86-18.22-21.14-26.49-7.29-8.24-14.74-16.08-22.28-23.72-1.3-1.31-3.24-.36-4.08,2.2-.66,2.01-.24,4.3.82,5.42,7.38,7.7,14.66,15.6,21.75,23.84,7.11,8.3,14.09,16.89,20.43,26.31,3.1,4.72,6.21,9.71,8.28,15.03.5,1.3.92,2.67,1.09,3.75.08.42.1.75.1.97-.2.14-.5.34-.9.46-.8.29-1.81.42-2.83.43-4.19,0-8.67-1.36-13-2.9-4.36-1.58-8.69-3.52-12.98-5.61-2.31-1.15-4.6-2.35-6.89-3.58-1.87-1.01-4.06.98-4.69,4.22,0,.05-.02.1-.03.14-.54,2.72.23,5.4,1.81,6.2,2.35,1.19,4.71,2.34,7.08,3.46,4.42,2.05,8.89,3.95,13.48,5.53,4.62,1.51,9.24,2.93,14.48,2.86,1.33-.05,2.71-.2,4.27-.79.77-.28,1.63-.74,2.55-1.48.9-.72,1.99-1.99,2.79-3.81.43-.88.67-1.91.92-2.9.14-.9.31-1.97.3-2.75Z"/>
  <path class="cls-4" d="M240.7,280.14c-46.72-27.64-94.65-66.54-94.65-66.54-5.02,46.26,26.76,63.21,38.72,52.19,0,0-.26,28.34,15.05,40.33l40.87-25.98ZM353.85,188.12c-12.3-43.94-37.42-46.58-37.42-46.58,0,0-1.66-35.79-31.07-55.23-35.44-23.43-58.89,13.95-58.89,13.95,0,0-18.42-13.24-36.68,5.03-24.99,25-20.95,61.04-20.95,61.04,0,0-11.84,9.11-13.17,21.59,12.82,8.8,106.24,74.98,106.24,74.98l91.94-74.78ZM360.82,215.04s-13.17,17.16-76.78,62.79c0,0,48.4,25.22,54.31,28.29.41-9.51-.63-16.94-.63-16.94,0,0,27.98-25.15,23.1-74.14ZM258.85,295.3c-18.09,13.64-40.97,27.7-40.97,27.7,13.44,7.48,30.35-1.2,30.35-1.2-.54,55.01,39.45,50.66,39.45,50.66,0,0,20.13,32.69,28.56,27.05,6.79-4.54-1.53-35.09-5.02-46.77,0,0,13.76-3.36,17.98-22.03,0,0-39.45-18.27-70.35-35.41Z"/>
  <path class="cls-1" d="M369.65,330.75c-1.08,7.32-5.61,12.72-10.12,12.06s-7.29-7.14-6.22-14.46c1.08-7.32,5.61-12.72,10.12-12.06,4.51.66,7.29,7.14,6.22,14.46Z"/>
  <ellipse class="cls-3" cx="129.23" cy="180.42" rx="22.65" ry="13.95" transform="translate(-82.03 248.39) rotate(-72.22)"/>
  <ellipse class="cls-5" cx="390.15" cy="175.61" rx="10.99" ry="17.49" transform="translate(-30.81 99.15) rotate(-13.94)"/>
</svg>